#!OML:ASF X:\für Bonn\!DataBase\2005_08_12_Daniel\c3d\Daniel.ASF
:FULLY-SPECIFIED
:DEGREES
98
root -3.12534 7.5655 -1.14767 367.274 -87.689 -391.384
lowerback 59.864 -4.41887 4.31037
upperback 5.126 -4.96917 -2.97077
thorax -16.4105 -2.9275 -2.5509
lowerneck 10.1237 1.45555 -1.01686
upperneck -10.1185 1.77357 -0.16029
head -4.70035 0.913745 -0.00722086
rclavicle -1.19271e-015 -1.19271e-014
rhumerus 86.2637 -15.2799 -201.875
rradius 10.4675
rwrist 171.32
rhand -26.6267 13.7293
rfingers 7.12502
rthumb -0.0595452 -16.2505
lclavicle -1.19271e-015 -1.19271e-014
lhumerus 65.7705 -5.96404 75.4999
lradius 12.215
lwrist -51.8488
lhand -21.1341 0.128794
lfingers 7.12502
lthumb 5.24487 30.0439
rfemur 45.2963 -64.5229 -138.204
rtibia 151.223
rfoot -32.229 60.1114
rtoes -7.94715
lfemur 119.798 105.287 -148.779
ltibia 148.182
lfoot -8.2855 -61.8396
ltoes 6.45926
99
root -3.09601 7.73345 -1.13964 366.248 -87.696 -390.028
lowerback 59.7895 -4.43102 4.32602
upperback 5.08133 -4.95221 -2.91832
thorax -16.4544 -2.91752 -2.50671
lowerneck 10.1447 1.46289 -1.16156
upperneck -10.2489 1.75925 -0.166168
head -4.74539 0.912519 0.0147009
rclavicle 6.36111e-015 -6.36111e-015
rhumerus 85.9213 -15.4096 -200.593
rradius 10.374
rwrist 170.344
rhand -26.3579 13.757
rfingers 7.12502
rthumb 0.200049 -16.2226
lclavicle 6.36111e-015 -6.36111e-015
lhumerus 65.5577 -5.91374 75.6777
lradius 12.3425
lwrist -51.8432
lhand -20.6022 0.180952
lfingers 7.12502
lthumb 5.75842 30.0827
rfemur 43.4269 -67.1586 -133.738
rtibia 149.894
rfoot -29.3319 58.5173
rtoes -8.00233
lfemur 116.18 107.679 -154.807
ltibia 146.975
lfoot -8.79226 -59.7626
ltoes 6.17896
100
root -3.06925 7.90933 -1.13202 364.876 -87.7156 -388.328
lowerback 59.6976 -4.43757 4.34532
upperback 5.04914 -4.93177 -2.88335
thorax -16.4843 -2.90635 -2.48676
lowerneck 10.0687 1.46528 -1.31574
upperneck -10.3407 1.74083 -0.148396
head -4.76261 0.908079 0.0467215
rclavicle -1.63003e-014 -1.59028e-015
rhumerus 85.6356 -15.5088 -199.556
rradius 10.3161
rwrist 169.535
rhand -26.1425 13.8182
rfingers 7.12502
rthumb 0.408147 -16.1611
lclavicle -1.63003e-014 -1.59028e-015
lhumerus 65.3858 -5.83907 75.9666
lradius 12.4868
lwrist -51.9443
lhand -20.0261 0.236682
lfingers 7.12502
lthumb 6.31464 30.1226
rfemur 39.6973 -69.8833 -127.481
rtibia 148.51
rfoot -26.5403 56.8312
rtoes -8.01552
lfemur 114.046 110.209 -159.361
ltibia 145.685
lfoot -9.09148 -57.7851
ltoes 5.96815
101
root -3.045 8.09744 -1.12455 362.82 -87.7183 -385.953
lowerback 59.6339 -4.44583 4.33878
upperback 4.9945 -4.92574 -2.84361
thorax -16.543 -2.89918 -2.44152
lowerneck 10.008 1.47585 -1.46758
upperneck -10.4336 1.73288 -0.137756
head -4.78272 0.909248 0.0753079
rclavicle 8.34896e-015 -7.95139e-016
rhumerus 85.4176 -15.6316 -198.756
rradius 10.2019
rwrist 168.823
rhand -26.0004 13.8449
rfingers 7.12502
rthumb 0.545377 -16.1341
lclavicle 8.34896e-015 -7.95139e-016
lhumerus 65.2398 -5.79391 76.1538
lradius 12.6127
lwrist -51.923
lhand -19.519 0.371925
lfingers 7.12502
lthumb 6.80414 30.2426
rfemur 33.5953 -72.3468 -118.869
rtibia 147.004
rfoot -23.8058 55.2253
rtoes -7.93365
lfemur 112.681 113.064 -163.253
ltibia 144.27
lfoot -9.33995 -55.7327
ltoes 5.77045
102
root -3.02453 8.2964 -1.11604 360.92 -87.7262 -383.717
lowerback 59.5507 -4.47152 4.36336
upperback 4.9235 -4.92465 -2.83593
thorax -16.626 -2.89384 -2.4444
lowerneck 9.96724 1.47186 -1.56686
upperneck -10.5103 1.7134 -0.125921
head -4.80056 0.902698 0.0964722
rclavicle 2.74323e-014 -4.77083e-015
rhumerus 85.2861 -15.7743 -198.218
rradius 10.0888
rwrist 168.282
rhand -26.002 13.8629
rfingers 7.12502
rthumb 0.543851 -16.1161
lclavicle 2.74323e-014 -4.77083e-015
lhumerus 65.0819 -5.74138 76.3861
lradius 12.7275
lwrist -52.0413
lhand -19.1859 0.479609
lfingers 7.12502
lthumb 7.12573 30.3396
rfemur 23.7897 -74.4906 -106.536
rtibia 145.405
rfoot -21.1541 53.4413
rtoes -7.82285
lfemur 111.973 116.089 -166.502
ltibia 142.763
lfoot -9.46741 -53.6584
ltoes 5.67175
103
root -3.00683 8.50081 -1.10836 358.648 -87.7311 -381.125
lowerback 59.4604 -4.48788 4.36473
upperback 4.86948 -4.931 -2.83218
thorax -16.6883 -2.89122 -2.43823
lowerneck 9.80379 1.47018 -1.60894
upperneck -10.5212 1.7036 -0.150585
head -4.77679 0.900677 0.0976022
rclavicle -4.59193e-014 -1.59028e-015
rhumerus 85.22 -15.9031 -198.009
rradius 9.96874
rwrist 167.959
rhand -26.154 13.8525
rfingers 7.12502
rthumb 0.396999 -16.1269
lclavicle -4.59193e-014 -1.59028e-015
lhumerus 65.0154 -5.72061 76.4772
lradius 12.7998
lwrist -51.9948
lhand -18.9725 0.609855
lfingers 7.12502
lthumb 7.33172 30.4628
rfemur 9.98317 -75.8053 -90.257
rtibia 143.762
rfoot -18.8276 51.509
rtoes -7.75829
lfemur 111.781 119.224 -169.233
ltibia 141.168
lfoot -9.34983 -51.6331
ltoes 5.72274
104
root -2.9912 8.70916 -1.10089 356.322 -87.7463 -378.474
lowerback 59.3447 -4.49654 4.3569
upperback 4.81263 -4.93524 -2.83379
thorax -16.7532 -2.88696 -2.4357
lowerneck 9.70006 1.48106 -1.707
upperneck -10.591 1.7085 -0.114992
head -4.7823 0.904435 0.124734
rclavicle 3.29983e-014 -2.38542e-015
rhumerus 85.1562 -16.0592 -197.809
rradius 9.80132
rwrist 167.582
rhand -26.4444 13.8066
rfingers 7.12502
rthumb 0.116496 -16.1731
lclavicle 3.29983e-014 -2.38542e-015
lhumerus 64.9579 -5.69228 76.5951
lradius 12.8462
lwrist -51.9855
lhand -18.9588 0.778788
lfingers 7.12502
lthumb 7.34494 30.6313
rfemur -6.72589 -75.8603 -71.0964
rtibia 142.061
rfoot -16.7498 49.3588
rtoes -7.7969
lfemur 111.934 122.369 -171.556
ltibia 139.521
lfoot -9.14734 -49.6512
ltoes 5.80093
105
root -2.97648 8.91516 -1.09232 353.904 -87.7415 -375.732
lowerback 59.2023 -4.52567 4.36456
upperback 4.74616 -4.95494 -2.84859
thorax -16.8315 -2.88864 -2.4474
lowerneck 9.58466 1.48609 -1.75234
upperneck -10.5964 1.70936 -0.120626
head -4.76508 0.906696 0.131181
rclavicle 1.23246e-014 1.27222e-014
rhumerus 85.1007 -16.2437 -197.628
rradius 9.63647
rwrist 167.236
rhand -26.9069 13.7574
rfingers 7.12502
rthumb -0.330168 -16.2221
lclavicle 1.23246e-014 1.27222e-014
lhumerus 64.9133 -5.68335 76.6253
lradius 12.861
lwrist -51.9264
lhand -19.0476 0.948455
lfingers 7.12502
lthumb 7.25919 30.8039
rfemur -22.009 -74.4835 -53.4976
rtibia 140.361
rfoot -14.9066 47.154
rtoes -7.81836
lfemur 112.271 125.452 -173.579
ltibia 137.862
lfoot -8.76978 -47.7737
ltoes 5.96808
106
root -2.96406 9.11864 -1.08361 351.618 -87.73 -373.122
lowerback 59.0036 -4.54895 4.37421
upperback 4.69768 -4.96667 -2.85275
thorax -16.8824 -2.88754 -2.45326
lowerneck 9.40646 1.49372 -1.8593
upperneck -10.5517 1.71294 -0.0744288
head -4.72298 0.909326 0.164135
rclavicle 1.64991e-014 -3.69739e-014
rhumerus 85.0413 -16.3963 -197.435
rradius 9.45533
rwrist 166.948
rhand -27.374 13.7234
rfingers 7.12502
rthumb -0.781263 -16.2549
lclavicle 1.64991e-014 -3.69739e-014
lhumerus 64.9492 -5.71683 76.5477
lradius 12.7988
lwrist -51.7363
lhand -19.1586 1.18253
lfingers 7.12502
lthumb 7.15204 31.0417
rfemur -33.3791 -72.0819 -39.9389
rtibia 138.681
rfoot -13.4177 44.9208
rtoes -7.87359
lfemur 112.77 128.387 -175.321
ltibia 136.2
lfoot -8.34101 -46.0203
ltoes 6.32518
107
root -2.95273 9.3139 -1.07453 348.805 -87.7277 -369.983
lowerback 58.7369 -4.56039 4.37945
upperback 4.66562 -4.97556 -2.88413
thorax -16.912 -2.88484 -2.49173
lowerneck 9.25344 1.48993 -1.87205
upperneck -10.5232 1.70712 -0.0869568
head -4.6886 0.907298 0.164038
rclavicle 2.5842e-015 2.34566e-014
rhumerus 85.0144 -16.5358 -197.278
rradius 9.26775
rwrist 166.69
rhand -27.821 13.6525
rfingers 7.12502
rthumb -1.21299 -16.3238
lclavicle 2.5842e-015 2.34566e-014
lhumerus 65.0473 -5.76156 76.4923
lradius 12.6485
lwrist -51.6569
lhand -19.345 1.38507
lfingers 7.12502
lthumb 6.97208 31.2503
rfemur -41.0264 -69.182 -30.329
rtibia 137.057
rfoot -12.0768 42.7965
rtoes -7.76068
lfemur 113.377 131.039 -176.827
ltibia 134.579
lfoot -7.95099 -44.433
ltoes 6.6485
108
root -2.94236 9.50504 -1.06515 346.593 -87.7069 -367.464
lowerback 58.4322 -4.5738 4.38964
upperback 4.64778 -4.98053 -2.89123
thorax -16.9175 -2.8814 -2.50742
lowerneck 9.01652 1.48995 -1.93597
upperneck -10.4023 1.70691 -0.0586375
head -4.61264 0.90728 0.185447
rclavicle 1.41137e-014 -1.19271e-015
rhumerus 84.9579 -16.63 -197.101
rradius 9.09944
rwrist 166.428
rhand -28.1303 13.7007
rfingers 7.12502
rthumb -1.51176 -16.2737
lclavicle 1.41137e-014 -1.19271e-015
lhumerus 65.2084 -5.78536 76.4034
lradius 12.4342
lwrist -51.582
lhand -19.3955 1.5959
lfingers 7.12502
lthumb 6.92342 31.4627
rfemur -46.0499 -66.0737 -23.4287
rtibia 135.457
rfoot -10.9567 40.7041
rtoes -7.79278
lfemur 114.07 133.507 -178.101
ltibia 132.976
lfoot -7.55552 -42.99
ltoes 7.05373
109
root -2.93423 9.69352 -1.05626 343.838 -87.6912 -364.392
lowerback 58.0715 -4.56518 4.37146
upperback 4.63439 -4.97882 -2.90083
thorax -16.9123 -2.87362 -2.51819
lowerneck 8.78737 1.49903 -1.96848
upperneck -10.2668 1.71949 -0.0653573
head -4.5331 0.914452 0.190103
rclavicle 6.75868e-015 2.22639e-014
rhumerus 84.9127 -16.6956 -196.932
rradius 8.91648
rwrist 166.21
rhand -28.3249 13.697
rfingers 7.12502
rthumb -1.69967 -16.276
lclavicle 6.75868e-015 2.22639e-014
lhumerus 65.3369 -5.72135 76.5839
lradius 12.2085
lwrist -51.8107
lhand -19.5277 1.74955
lfingers 7.12502
lthumb 6.79581 31.6205
rfemur -49.2445 -63.0321 -18.5133
rtibia 133.885
rfoot -9.95148 38.734
rtoes -7.58872
lfemur 114.838 135.724 -179.235
ltibia 131.384
lfoot -7.24432 -41.692
ltoes 7.4228
110
root -2.92608 9.87699 -1.04689 341.682 -87.6515 -361.915
lowerback 57.6818 -4.57984 4.37385
upperback 4.60958 -4.99007 -2.91008
thorax -16.919 -2.87128 -2.53129
lowerneck 8.51927 1.50372 -2.00226
upperneck -10.0763 1.72838 -0.0656642
head -4.43032 0.919281 0.197711
rclavicle -4.11484e-014 -1.07344e-014
rhumerus 84.8509 -16.748 -196.777
rradius 8.7341
rwrist 165.922
rhand -28.3229 13.7476
rfingers 7.12502
rthumb -1.69781 -16.2253
lclavicle -4.11484e-014 -1.07344e-014
lhumerus 65.4527 -5.6377 76.7744
lradius 11.9607
lwrist -52.1188
lhand -19.5637 1.9097
lfingers 7.12502
lthumb 6.76097 31.7818
rfemur -51.3223 -60.1223 -14.7971
rtibia 132.323
rfoot -9.07294 36.9024
rtoes -7.47382
lfemur 115.563 137.787 -180.267
ltibia 129.835
lfoot -7.03749 -40.4659
ltoes 7.70302
111
root -2.91956 10.0584 -1.03915 339.276 -87.6296 -359.209
lowerback 57.2608 -4.56144 4.35545
upperback 4.60307 -4.97977 -2.92653
thorax -16.8982 -2.85999 -2.55585
lowerneck 8.24065 1.4932 -1.98793
upperneck -9.48707 1.71964 -0.106173
head -4.66214 0.915752 0.20756
rclavicle -1.78906e-015 -9.14409e-015
rhumerus 84.8144 -16.7775 -196.642
rradius 8.57637
rwrist 165.674
rhand -28.2431 13.7987
rfingers 7.12502
rthumb -1.62071 -16.1749
lclavicle -1.78906e-015 -9.14409e-015
lhumerus 65.5864 -5.59607 76.9175
lradius 11.7035
lwrist -52.4093
lhand -19.6083 2.05268
lfingers 7.12502
lthumb 6.71796 31.9261
rfemur -52.6614 -57.3344 -11.8937
rtibia 130.779
rfoot -8.40672 35.1188
rtoes -7.35968
lfemur 116.415 139.612 -181.125
ltibia 128.276
lfoot -6.81562 -39.4497
ltoes 8.0315
